<?xml version="1.0" encoding="UTF-8"?>
<mxfile host="app.diagrams.net" modified="2024-03-26T21:00:00.000Z" agent="Mozilla/5.0" version="21.1.9" type="device">
  <diagram name="RAG Flow" id="rag-flow">
    <mxGraphModel dx="1422" dy="798" grid="1" gridSize="10" guides="1" tooltips="1" connect="1" arrows="1" fold="1" page="1" pageScale="1" pageWidth="1100" pageHeight="850" math="0" shadow="0">
      <root>
        <mxCell id="0" />
        <mxCell id="1" parent="0" />
        
        <!-- User Input -->
        <mxCell id="user" value="User Question" style="shape=umlActor;verticalLabelPosition=bottom;verticalAlign=top;html=1;" vertex="1" parent="1">
          <mxGeometry x="90" y="40" width="30" height="60" as="geometry" />
        </mxCell>
        
        <!-- Frontend Process -->
        <mxCell id="frontend-process" value="Frontend Processing" style="swimlane;whiteSpace=wrap;html=1;fillColor=#dd0031;strokeColor=#dd0031;fontColor=white;" vertex="1" parent="1">
          <mxGeometry x="200" y="20" width="200" height="100" as="geometry">
            <mxRectangle x="200" y="20" width="140" height="30" as="alternateBounds" />
          </mxGeometry>
        </mxCell>
        
        <mxCell id="question-validation" value="Question Validation" style="rounded=1;whiteSpace=wrap;html=1;fillColor=#dd0031;strokeColor=#dd0031;fontColor=white;" vertex="1" parent="frontend-process">
          <mxGeometry x="20" y="40" width="160" height="40" as="geometry" />
        </mxCell>
        
        <!-- API Processing -->
        <mxCell id="api-process" value="API Processing" style="swimlane;whiteSpace=wrap;html=1;fillColor=#2c3e50;strokeColor=#2c3e50;fontColor=white;" vertex="1" parent="1">
          <mxGeometry x="480" y="20" width="200" height="100" as="geometry" />
        </mxCell>
        
        <mxCell id="request-handling" value="Request Handling" style="rounded=1;whiteSpace=wrap;html=1;fillColor=#2c3e50;strokeColor=#2c3e50;fontColor=white;" vertex="1" parent="api-process">
          <mxGeometry x="20" y="40" width="160" height="40" as="geometry" />
        </mxCell>
        
        <!-- RAG Pipeline -->
        <mxCell id="rag-pipeline" value="RAG Pipeline" style="swimlane;whiteSpace=wrap;html=1;fillColor=#4285f4;strokeColor=#4285f4;fontColor=white;" vertex="1" parent="1">
          <mxGeometry x="40" y="160" width="1020" height="200" as="geometry" />
        </mxCell>
        
        <!-- Pipeline Steps -->
        <mxCell id="embedding-gen" value="Generate&#xa;Question Embedding" style="rounded=1;whiteSpace=wrap;html=1;fillColor=#4285f4;strokeColor=#4285f4;fontColor=white;" vertex="1" parent="1">
          <mxGeometry x="60" y="200" width="160" height="60" as="geometry" />
        </mxCell>
        
        <mxCell id="vector-search" value="Vector Search&#xa;Similar Content" style="rounded=1;whiteSpace=wrap;html=1;fillColor=#4285f4;strokeColor=#4285f4;fontColor=white;" vertex="1" parent="1">
          <mxGeometry x="280" y="200" width="160" height="60" as="geometry" />
        </mxCell>
        
        <mxCell id="context-prep" value="Context&#xa;Preparation" style="rounded=1;whiteSpace=wrap;html=1;fillColor=#4285f4;strokeColor=#4285f4;fontColor=white;" vertex="1" parent="1">
          <mxGeometry x="500" y="200" width="160" height="60" as="geometry" />
        </mxCell>
        
        <mxCell id="llm-query" value="LLM Query&#xa;Generation" style="rounded=1;whiteSpace=wrap;html=1;fillColor=#4285f4;strokeColor=#4285f4;fontColor=white;" vertex="1" parent="1">
          <mxGeometry x="720" y="200" width="160" height="60" as="geometry" />
        </mxCell>
        
        <mxCell id="answer-gen" value="Answer&#xa;Generation" style="rounded=1;whiteSpace=wrap;html=1;fillColor=#4285f4;strokeColor=#4285f4;fontColor=white;" vertex="1" parent="1">
          <mxGeometry x="880" y="200" width="160" height="60" as="geometry" />
        </mxCell>
        
        <!-- Data Sources -->
        <mxCell id="data-sources" value="Data Sources" style="swimlane;whiteSpace=wrap;html=1;fillColor=#34a853;strokeColor=#34a853;fontColor=white;" vertex="1" parent="1">
          <mxGeometry x="40" y="400" width="1020" height="120" as="geometry" />
        </mxCell>
        
        <mxCell id="vector-db" value="Vector Store" style="shape=cylinder3;whiteSpace=wrap;html=1;boundedLbl=1;backgroundOutline=1;size=15;fillColor=#34a853;strokeColor=#34a853;fontColor=white;" vertex="1" parent="1">
          <mxGeometry x="60" y="440" width="120" height="60" as="geometry" />
        </mxCell>
        
        <mxCell id="content-store" value="Content Store" style="shape=cylinder3;whiteSpace=wrap;html=1;boundedLbl=1;backgroundOutline=1;size=15;fillColor=#34a853;strokeColor=#34a853;fontColor=white;" vertex="1" parent="1">
          <mxGeometry x="280" y="440" width="120" height="60" as="geometry" />
        </mxCell>
        
        <mxCell id="vertex-ai-llm" value="Vertex AI LLM" style="rounded=1;whiteSpace=wrap;html=1;fillColor=#4285f4;strokeColor=#4285f4;fontColor=white;" vertex="1" parent="1">
          <mxGeometry x="880" y="440" width="160" height="60" as="geometry" />
        </mxCell>
        
        <!-- Flow Arrows -->
        <mxCell id="" value="" style="endArrow=classic;html=1;rounded=0;exitX=1;exitY=0.5;entryX=0;entryY=0.5;" edge="1" parent="1" source="user" target="question-validation">
          <mxGeometry relative="1" as="geometry" />
        </mxCell>
        
        <mxCell id="" value="" style="endArrow=classic;html=1;rounded=0;exitX=1;exitY=0.5;entryX=0;entryY=0.5;" edge="1" parent="1" source="question-validation" target="request-handling">
          <mxGeometry relative="1" as="geometry" />
        </mxCell>
        
        <mxCell id="" value="" style="endArrow=classic;html=1;rounded=0;exitX=0.5;exitY=1;entryX=0.5;entryY=0;" edge="1" parent="1" source="request-handling" target="embedding-gen">
          <mxGeometry relative="1" as="geometry" />
        </mxCell>
        
        <!-- Pipeline Flow -->
        <mxCell id="" value="" style="endArrow=classic;html=1;rounded=0;exitX=1;exitY=0.5;entryX=0;entryY=0.5;" edge="1" parent="1" source="embedding-gen" target="vector-search">
          <mxGeometry relative="1" as="geometry" />
        </mxCell>
        
        <mxCell id="" value="" style="endArrow=classic;html=1;rounded=0;exitX=1;exitY=0.5;entryX=0;entryY=0.5;" edge="1" parent="1" source="vector-search" target="context-prep">
          <mxGeometry relative="1" as="geometry" />
        </mxCell>
        
        <mxCell id="" value="" style="endArrow=classic;html=1;rounded=0;exitX=1;exitY=0.5;entryX=0;entryY=0.5;" edge="1" parent="1" source="context-prep" target="llm-query">
          <mxGeometry relative="1" as="geometry" />
        </mxCell>
        
        <mxCell id="" value="" style="endArrow=classic;html=1;rounded=0;exitX=1;exitY=0.5;entryX=0;entryY=0.5;" edge="1" parent="1" source="llm-query" target="answer-gen">
          <mxGeometry relative="1" as="geometry" />
        </mxCell>
        
        <!-- Data Access -->
        <mxCell id="" value="" style="endArrow=classic;html=1;rounded=0;exitX=0.5;exitY=1;entryX=0.5;entryY=0;" edge="1" parent="1" source="embedding-gen" target="vector-db">
          <mxGeometry relative="1" as="geometry" />
        </mxCell>
        
        <mxCell id="" value="" style="endArrow=classic;html=1;rounded=0;exitX=0.5;exitY=1;entryX=0.5;entryY=0;" edge="1" parent="1" source="vector-search" target="content-store">
          <mxGeometry relative="1" as="geometry" />
        </mxCell>
        
        <mxCell id="" value="" style="endArrow=classic;html=1;rounded=0;exitX=0.5;exitY=1;entryX=0.5;entryY=0;" edge="1" parent="1" source="answer-gen" target="vertex-ai-llm">
          <mxGeometry relative="1" as="geometry" />
        </mxCell>
        
        <!-- Labels -->
        <mxCell id="embedding-label" value="1. Generate embeddings" style="text;html=1;strokeColor=none;fillColor=none;align=center;verticalAlign=middle;whiteSpace=wrap;rounded=0;" vertex="1" parent="1">
          <mxGeometry x="60" y="270" width="160" height="20" as="geometry" />
        </mxCell>
        
        <mxCell id="search-label" value="2. Find similar content" style="text;html=1;strokeColor=none;fillColor=none;align=center;verticalAlign=middle;whiteSpace=wrap;rounded=0;" vertex="1" parent="1">
          <mxGeometry x="280" y="270" width="160" height="20" as="geometry" />
        </mxCell>
        
        <mxCell id="context-label" value="3. Prepare context" style="text;html=1;strokeColor=none;fillColor=none;align=center;verticalAlign=middle;whiteSpace=wrap;rounded=0;" vertex="1" parent="1">
          <mxGeometry x="500" y="270" width="160" height="20" as="geometry" />
        </mxCell>
        
        <mxCell id="query-label" value="4. Generate LLM query" style="text;html=1;strokeColor=none;fillColor=none;align=center;verticalAlign=middle;whiteSpace=wrap;rounded=0;" vertex="1" parent="1">
          <mxGeometry x="720" y="270" width="160" height="20" as="geometry" />
        </mxCell>
        
        <mxCell id="answer-label" value="5. Generate answer" style="text;html=1;strokeColor=none;fillColor=none;align=center;verticalAlign=middle;whiteSpace=wrap;rounded=0;" vertex="1" parent="1">
          <mxGeometry x="880" y="270" width="160" height="20" as="geometry" />
        </mxCell>
      </root>
    </mxGraphModel>
  </diagram>
</mxfile> 